<?xml version="1.0" encoding="utf-8"?>
<!-- Generator: Adobe Illustrator 17.1.0, SVG Export Plug-In . SVG Version: 6.00 Build 0)  -->
<!DOCTYPE svg PUBLIC "-//W3C//DTD SVG 1.1//EN" "http://www.w3.org/Graphics/SVG/1.1/DTD/svg11.dtd">
<svg version="1.1" id="Layer_1" xmlns="http://www.w3.org/2000/svg" xmlns:xlink="http://www.w3.org/1999/xlink" x="0px" y="0px"
	 viewBox="0 0 900 900" enable-background="new 0 0 900 900" xml:space="preserve">
<path d="M50,178.6h128.6v128.6H50V178.6z M50,435.7h128.6v128.6H50V435.7z M50,692.9h128.6v128.6H50V692.9z M307.1,178.6h128.6
	v128.6H307.1V178.6z M307.1,435.7h128.6v128.6H307.1V435.7z M307.1,692.9h128.6v128.6H307.1V692.9z M564.3,178.6h128.6v128.6H564.3
	V178.6z M564.3,435.7h128.6v128.6H564.3V435.7z M564.3,692.9h128.6v128.6H564.3V692.9z M821.4,178.6H950v128.6H821.4V178.6z
	 M821.4,435.7H950v128.6H821.4V435.7z M821.4,692.9H950v128.6H821.4V692.9z"/>
</svg>
